<?xml version="1.0" encoding="UTF-8"?>
<!DOCTYPE svg PUBLIC "-//W3C//DTD SVG 1.1//EN" "http://www.w3.org/Graphics/SVG/1.1/DTD/svg11.dtd">
<svg xmlns="http://www.w3.org/2000/svg" version="1.1" width="410px" height="410px" style="shape-rendering:geometricPrecision; text-rendering:geometricPrecision; image-rendering:optimizeQuality; fill-rule:evenodd; clip-rule:evenodd" xmlns:xlink="http://www.w3.org/1999/xlink">
<g><path style="opacity:1" fill="#ffffff" d="M -0.5,71.5 C 41.172,71.1668 82.8387,71.5001 124.5,72.5C 146.193,101.693 167.693,131.026 189,160.5C 189.667,217.833 189.667,275.167 189,332.5C 125.97,245.984 62.8034,159.651 -0.5,73.5C -0.5,72.8333 -0.5,72.1667 -0.5,71.5 Z"/></g>
<g><path style="opacity:1" fill="#ffffff" d="M 209.5,71.5 C 275.833,71.5 342.167,71.5 408.5,71.5C 408.5,104.833 408.5,138.167 408.5,171.5C 375.833,171.5 343.167,171.5 310.5,171.5C 310.5,226.5 310.5,281.5 310.5,336.5C 277.167,336.5 243.833,336.5 210.5,336.5C 210.782,248.161 210.448,159.828 209.5,71.5 Z"/></g>
<g><path style="opacity:1" fill="#000000" d="M 40.5,93.5 C 64.3298,92.3368 88.3298,92.1702 112.5,93C 131,118.167 149.5,143.333 168,168.5C 168.667,201.5 168.667,234.5 168,267.5C 126.023,209.037 83.5231,151.037 40.5,93.5 Z"/></g>
<g><path style="opacity:1" fill="#000000" d="M 231.5,92.5 C 283.5,92.5 335.5,92.5 387.5,92.5C 387.5,111.833 387.5,131.167 387.5,150.5C 354.833,150.5 322.167,150.5 289.5,150.5C 289.5,205.5 289.5,260.5 289.5,315.5C 270.167,315.5 250.833,315.5 231.5,315.5C 231.5,241.167 231.5,166.833 231.5,92.5 Z"/></g>
</svg>
